<?xml version="1.0" standalone="no"?>
<!DOCTYPE svg PUBLIC "-//W3C//DTD SVG 20010904//EN"
 "http://www.w3.org/TR/2001/REC-SVG-20010904/DTD/svg10.dtd">
<svg version="1.0" xmlns="http://www.w3.org/2000/svg"
 width="700.000000pt" height="700.000000pt" viewBox="0 0 700.000000 700.000000"
 preserveAspectRatio="xMidYMid meet">
<metadata>
Created by potrace 1.11, written by Peter Selinger 2001-2013
</metadata>
<g transform="translate(0.000000,700.000000) scale(0.100000,-0.100000)"
fill="#000000" stroke="none">
<path d="M955 6990 c-22 -4 -56 -11 -75 -14 -19 -3 -66 -15 -104 -27 -391
-120 -690 -463 -763 -871 -4 -24 -8 -1172 -10 -2553 -2 -2698 -4 -2581 48
-2750 68 -223 217 -429 408 -566 147 -104 291 -164 467 -193 134 -22 5013 -23
5149 -1 339 55 633 265 794 565 41 78 85 188 95 237 37 187 36 88 35 2683 0
2735 4 2558 -60 2752 -107 327 -384 597 -715 698 -171 51 -44 49 -2729 48
-1375 0 -2518 -4 -2540 -8z"/>
</g>
</svg>
